<?xml version="1.0" encoding="utf-8"?>
<!-- Generator: Adobe Illustrator 21.1.0, SVG Export Plug-In . SVG Version: 6.00 Build 0)  -->
<svg version="1.1" id="Capa_1" xmlns="http://www.w3.org/2000/svg" xmlns:xlink="http://www.w3.org/1999/xlink" x="0px" y="0px"
	 viewBox="0 0 200 50" style="enable-background:new 0 0 200 50;" xml:space="preserve">
<style type="text/css">
	.st0{fill:#FFFFFF;}
</style>
<g>
	<g>
		<path class="st0" d="M49.2,22.7v4.5c0.6-0.6,1.1-1,1.7-1.3s1.3-0.5,2.1-0.5c1,0,1.8,0.2,2.6,0.7c0.7,0.5,1.3,1.1,1.7,2
			c0.4,0.9,0.6,1.9,0.6,3.2c0,0.9-0.1,1.7-0.3,2.5c-0.2,0.7-0.6,1.4-1,1.9s-1,1-1.6,1.3c-0.6,0.3-1.3,0.5-2,0.5
			c-0.5,0-0.9-0.1-1.3-0.2c-0.4-0.1-0.7-0.3-1-0.4c-0.3-0.2-0.5-0.4-0.7-0.5c-0.2-0.2-0.5-0.5-0.8-0.8v0.3c0,0.6-0.1,1-0.4,1.3
			c-0.3,0.3-0.6,0.4-1,0.4c-0.4,0-0.8-0.1-1-0.4c-0.2-0.3-0.4-0.7-0.4-1.3V22.8c0-0.6,0.1-1.1,0.4-1.4c0.2-0.3,0.6-0.5,1-0.5
			c0.5,0,0.8,0.1,1.1,0.4C49.1,21.8,49.2,22.2,49.2,22.7z M49.4,31.5c0,1.2,0.3,2.1,0.8,2.7c0.5,0.6,1.2,0.9,2.1,0.9
			c0.7,0,1.4-0.3,1.9-1c0.5-0.6,0.8-1.6,0.8-2.8c0-0.8-0.1-1.5-0.3-2c-0.2-0.6-0.5-1-1-1.3s-0.9-0.5-1.4-0.5c-0.6,0-1.1,0.2-1.5,0.5
			s-0.8,0.8-1,1.3C49.5,30,49.4,30.7,49.4,31.5z"/>
		<path class="st0" d="M71.5,31.4c0,0.9-0.1,1.7-0.4,2.4c-0.3,0.7-0.7,1.4-1.2,1.9c-0.5,0.5-1.1,0.9-1.9,1.2
			c-0.7,0.3-1.5,0.4-2.4,0.4c-0.9,0-1.7-0.1-2.4-0.4s-1.3-0.7-1.9-1.2c-0.5-0.5-0.9-1.2-1.2-1.9c-0.3-0.7-0.4-1.5-0.4-2.4
			c0-0.9,0.1-1.7,0.4-2.5c0.3-0.7,0.7-1.4,1.2-1.9c0.5-0.5,1.1-0.9,1.9-1.2c0.7-0.3,1.5-0.4,2.4-0.4c0.9,0,1.7,0.1,2.4,0.4
			s1.4,0.7,1.9,1.2c0.5,0.5,0.9,1.2,1.2,1.9C71.3,29.7,71.5,30.6,71.5,31.4z M68.5,31.4c0-1.2-0.3-2.1-0.8-2.8c-0.5-0.7-1.2-1-2.1-1
			c-0.6,0-1.1,0.2-1.5,0.5c-0.4,0.3-0.8,0.7-1,1.3c-0.2,0.6-0.4,1.3-0.4,2.1c0,0.8,0.1,1.4,0.4,2s0.6,1,1,1.3c0.4,0.3,1,0.5,1.5,0.5
			c0.9,0,1.6-0.3,2.1-1C68.2,33.6,68.5,32.6,68.5,31.4z"/>
		<path class="st0" d="M84.9,31.4c0,0.9-0.1,1.7-0.4,2.4c-0.3,0.7-0.7,1.4-1.2,1.9c-0.5,0.5-1.1,0.9-1.9,1.2
			c-0.7,0.3-1.5,0.4-2.4,0.4c-0.9,0-1.7-0.1-2.4-0.4s-1.3-0.7-1.9-1.2c-0.5-0.5-0.9-1.2-1.2-1.9c-0.3-0.7-0.4-1.5-0.4-2.4
			c0-0.9,0.1-1.7,0.4-2.5s0.7-1.4,1.2-1.9c0.5-0.5,1.1-0.9,1.9-1.2c0.7-0.3,1.5-0.4,2.4-0.4c0.9,0,1.7,0.1,2.4,0.4
			c0.7,0.3,1.4,0.7,1.9,1.2c0.5,0.5,0.9,1.2,1.2,1.9C84.8,29.7,84.9,30.6,84.9,31.4z M81.9,31.4c0-1.2-0.3-2.1-0.8-2.8
			c-0.5-0.7-1.2-1-2.1-1c-0.6,0-1.1,0.2-1.5,0.5c-0.4,0.3-0.8,0.7-1,1.3c-0.2,0.6-0.4,1.3-0.4,2.1c0,0.8,0.1,1.4,0.4,2
			c0.2,0.6,0.6,1,1,1.3c0.4,0.3,1,0.5,1.5,0.5c0.9,0,1.6-0.3,2.1-1C81.7,33.6,81.9,32.6,81.9,31.4z"/>
		<path class="st0" d="M94.6,36.1L92,31.8l-1.6,1.5v2.4c0,0.6-0.2,1-0.5,1.3c-0.3,0.3-0.6,0.5-1,0.5c-0.5,0-0.8-0.2-1.1-0.5
			s-0.4-0.8-0.4-1.3V23c0-0.7,0.1-1.2,0.4-1.5c0.3-0.3,0.6-0.5,1.1-0.5c0.5,0,0.8,0.2,1.1,0.5c0.3,0.3,0.4,0.8,0.4,1.4V30l3.3-3.5
			c0.4-0.4,0.7-0.7,0.9-0.9c0.2-0.2,0.5-0.2,0.8-0.2c0.4,0,0.7,0.1,0.9,0.4s0.4,0.5,0.4,0.9c0,0.4-0.4,1-1.2,1.7L94,29.8l3,4.8
			c0.2,0.4,0.4,0.6,0.5,0.8c0.1,0.2,0.1,0.4,0.1,0.5c0,0.5-0.1,0.8-0.4,1.1c-0.3,0.3-0.6,0.4-1,0.4c-0.4,0-0.6-0.1-0.8-0.3
			C95.2,37,94.9,36.6,94.6,36.1z"/>
		<path class="st0" d="M108.2,27.1v0.4c0.6-0.7,1.1-1.2,1.7-1.5c0.6-0.3,1.3-0.5,2-0.5c0.9,0,1.7,0.2,2.5,0.7s1.4,1.2,1.8,2.1
			c0.4,0.9,0.7,2,0.7,3.2c0,0.9-0.1,1.7-0.4,2.5c-0.3,0.8-0.6,1.4-1.1,1.9c-0.4,0.5-1,0.9-1.6,1.2c-0.6,0.3-1.3,0.4-2,0.4
			c-0.8,0-1.6-0.2-2.1-0.5c-0.6-0.3-1.1-0.8-1.6-1.5v4.4c0,1.3-0.5,2-1.4,2c-0.6,0-0.9-0.2-1.1-0.5c-0.2-0.3-0.3-0.8-0.3-1.5V27.1
			c0-0.6,0.1-1,0.4-1.3s0.6-0.4,1-0.4c0.4,0,0.8,0.1,1,0.4C108.1,26.1,108.2,26.6,108.2,27.1z M114,31.4c0-0.8-0.1-1.5-0.4-2
			c-0.2-0.6-0.6-1-1-1.3c-0.4-0.3-0.9-0.5-1.4-0.5c-0.8,0-1.5,0.3-2.1,1c-0.6,0.6-0.8,1.6-0.8,2.8c0,1.2,0.3,2.1,0.8,2.7
			c0.6,0.7,1.2,1,2.1,1c0.5,0,0.9-0.1,1.4-0.4c0.4-0.3,0.8-0.7,1-1.3S114,32.2,114,31.4z"/>
		<path class="st0" d="M122.3,33.2v2.5c0,0.6-0.1,1.1-0.4,1.4c-0.3,0.3-0.6,0.5-1.1,0.5c-0.4,0-0.8-0.2-1.1-0.5
			c-0.3-0.3-0.4-0.8-0.4-1.3v-8.2c0-1.3,0.5-2,1.4-2c0.5,0,0.8,0.2,1.1,0.5c0.2,0.3,0.3,0.8,0.4,1.4c0.4-0.6,0.7-1.1,1.1-1.4
			c0.4-0.3,0.9-0.5,1.5-0.5s1.2,0.2,1.8,0.5c0.6,0.3,0.9,0.7,0.9,1.2c0,0.4-0.1,0.7-0.4,0.9c-0.2,0.2-0.5,0.4-0.8,0.4
			c-0.1,0-0.4-0.1-0.8-0.2c-0.4-0.1-0.8-0.2-1.1-0.2c-0.4,0-0.8,0.1-1.1,0.3c-0.3,0.2-0.5,0.6-0.6,1c-0.2,0.4-0.3,1-0.3,1.6
			C122.4,31.6,122.3,32.3,122.3,33.2z"/>
		<path class="st0" d="M139.4,31.4c0,0.9-0.1,1.7-0.4,2.4c-0.3,0.7-0.7,1.4-1.2,1.9c-0.5,0.5-1.1,0.9-1.9,1.2
			c-0.7,0.3-1.5,0.4-2.4,0.4c-0.9,0-1.7-0.1-2.4-0.4s-1.3-0.7-1.9-1.2c-0.5-0.5-0.9-1.2-1.2-1.9c-0.3-0.7-0.4-1.5-0.4-2.4
			c0-0.9,0.1-1.7,0.4-2.5s0.7-1.4,1.2-1.9c0.5-0.5,1.1-0.9,1.9-1.2c0.7-0.3,1.5-0.4,2.4-0.4c0.9,0,1.7,0.1,2.4,0.4s1.4,0.7,1.9,1.2
			c0.5,0.5,0.9,1.2,1.2,1.9C139.2,29.7,139.4,30.6,139.4,31.4z M136.4,31.4c0-1.2-0.3-2.1-0.8-2.8c-0.5-0.7-1.2-1-2.1-1
			c-0.6,0-1.1,0.2-1.5,0.5c-0.4,0.3-0.8,0.7-1,1.3c-0.2,0.6-0.4,1.3-0.4,2.1c0,0.8,0.1,1.4,0.4,2c0.2,0.6,0.6,1,1,1.3
			c0.4,0.3,1,0.5,1.5,0.5c0.9,0,1.6-0.3,2.1-1C136.1,33.6,136.4,32.6,136.4,31.4z"/>
		<path class="st0" d="M152.3,33.8c0,0.4-0.1,0.8-0.3,1.2c-0.2,0.4-0.6,0.8-1,1.2c-0.5,0.4-1,0.7-1.7,0.9c-0.7,0.2-1.5,0.3-2.3,0.3
			c-1.8,0-3.3-0.5-4.3-1.6c-1-1.1-1.5-2.5-1.5-4.3c0-1.2,0.2-2.3,0.7-3.2s1.1-1.7,2-2.2c0.9-0.5,2-0.8,3.2-0.8
			c0.8,0,1.5,0.1,2.1,0.3c0.6,0.2,1.2,0.5,1.6,0.9c0.4,0.4,0.8,0.7,1,1.1c0.2,0.4,0.4,0.8,0.4,1.1c0,0.4-0.1,0.7-0.4,0.9
			c-0.3,0.2-0.6,0.4-1,0.4c-0.2,0-0.5-0.1-0.6-0.2c-0.2-0.1-0.3-0.3-0.5-0.6c-0.4-0.5-0.7-1-1.1-1.2c-0.4-0.3-0.9-0.4-1.5-0.4
			c-0.9,0-1.6,0.3-2.1,1c-0.5,0.7-0.8,1.6-0.8,2.8c0,0.6,0.1,1.1,0.2,1.5c0.1,0.5,0.3,0.9,0.6,1.2c0.3,0.3,0.6,0.6,0.9,0.7
			c0.4,0.2,0.8,0.3,1.2,0.3c0.6,0,1.1-0.1,1.5-0.4c0.4-0.3,0.8-0.7,1.1-1.3c0.2-0.3,0.4-0.6,0.6-0.8s0.5-0.3,0.8-0.3
			c0.4,0,0.7,0.1,0.9,0.4S152.3,33.5,152.3,33.8z"/>
		<path class="st0" d="M163.2,32.2h-5.8c0,0.7,0.1,1.3,0.4,1.8c0.3,0.5,0.6,0.9,1.1,1.2c0.4,0.3,0.9,0.4,1.4,0.4c0.4,0,0.7,0,1-0.1
			c0.3-0.1,0.6-0.2,0.9-0.4c0.3-0.2,0.5-0.4,0.8-0.6c0.2-0.2,0.5-0.5,0.9-0.8c0.2-0.1,0.4-0.2,0.7-0.2c0.3,0,0.5,0.1,0.7,0.2
			c0.2,0.2,0.3,0.4,0.3,0.7c0,0.3-0.1,0.6-0.3,0.9c-0.2,0.4-0.5,0.7-0.9,1c-0.4,0.3-1,0.6-1.6,0.8c-0.6,0.2-1.4,0.3-2.2,0.3
			c-1.9,0-3.4-0.5-4.4-1.6c-1.1-1.1-1.6-2.6-1.6-4.4c0-0.9,0.1-1.7,0.4-2.4c0.3-0.7,0.6-1.4,1.1-1.9s1.1-0.9,1.8-1.2
			c0.7-0.3,1.5-0.4,2.4-0.4c1.2,0,2.1,0.2,3,0.7c0.8,0.5,1.4,1.1,1.9,1.9c0.4,0.8,0.6,1.6,0.6,2.4c0,0.7-0.2,1.2-0.6,1.4
			C164.5,32.1,163.9,32.2,163.2,32.2z M157.4,30.5h5.4c-0.1-1-0.3-1.8-0.8-2.3c-0.5-0.5-1.1-0.8-1.9-0.8c-0.7,0-1.3,0.3-1.8,0.8
			C157.8,28.7,157.5,29.5,157.4,30.5z"/>
		<path class="st0" d="M177.6,33.6c0,0.8-0.2,1.5-0.6,2.1c-0.4,0.6-1,1-1.8,1.3c-0.8,0.3-1.7,0.5-2.8,0.5c-1.1,0-2-0.2-2.7-0.5
			c-0.8-0.3-1.3-0.7-1.7-1.2c-0.4-0.5-0.5-1-0.5-1.5c0-0.3,0.1-0.6,0.3-0.8c0.2-0.2,0.5-0.3,0.9-0.3c0.3,0,0.5,0.1,0.7,0.2
			c0.2,0.2,0.3,0.4,0.5,0.6c0.3,0.5,0.7,0.9,1.1,1.2c0.4,0.3,1,0.4,1.7,0.4c0.6,0,1.1-0.1,1.5-0.4c0.4-0.3,0.6-0.6,0.6-0.9
			c0-0.5-0.2-0.9-0.6-1.1c-0.4-0.2-1-0.5-1.9-0.7c-1-0.3-1.8-0.5-2.5-0.8c-0.6-0.3-1.2-0.6-1.5-1.1c-0.4-0.5-0.6-1-0.6-1.7
			c0-0.6,0.2-1.2,0.5-1.7c0.4-0.5,0.9-0.9,1.6-1.3c0.7-0.3,1.5-0.5,2.5-0.5c0.8,0,1.5,0.1,2.1,0.2c0.6,0.2,1.1,0.4,1.5,0.6
			c0.4,0.3,0.7,0.6,0.9,0.9c0.2,0.3,0.3,0.6,0.3,1c0,0.3-0.1,0.6-0.3,0.8c-0.2,0.2-0.6,0.3-1,0.3c-0.3,0-0.6-0.1-0.8-0.3
			s-0.5-0.4-0.7-0.8c-0.2-0.3-0.5-0.5-0.8-0.7s-0.7-0.3-1.2-0.3c-0.5,0-1,0.1-1.3,0.3c-0.4,0.2-0.5,0.5-0.5,0.9
			c0,0.3,0.1,0.6,0.4,0.8c0.3,0.2,0.6,0.4,1.1,0.5c0.4,0.1,1,0.3,1.8,0.5c0.9,0.2,1.7,0.5,2.3,0.8c0.6,0.3,1,0.7,1.3,1.1
			C177.5,32.6,177.6,33.1,177.6,33.6z"/>
		<path class="st0" d="M189.7,33.6c0,0.8-0.2,1.5-0.6,2.1c-0.4,0.6-1,1-1.8,1.3c-0.8,0.3-1.7,0.5-2.8,0.5c-1.1,0-2-0.2-2.7-0.5
			c-0.8-0.3-1.3-0.7-1.7-1.2c-0.4-0.5-0.5-1-0.5-1.5c0-0.3,0.1-0.6,0.3-0.8c0.2-0.2,0.5-0.3,0.9-0.3c0.3,0,0.5,0.1,0.7,0.2
			c0.2,0.2,0.3,0.4,0.5,0.6c0.3,0.5,0.7,0.9,1.1,1.2c0.4,0.3,1,0.4,1.7,0.4c0.6,0,1.1-0.1,1.5-0.4c0.4-0.3,0.6-0.6,0.6-0.9
			c0-0.5-0.2-0.9-0.6-1.1c-0.4-0.2-1-0.5-1.9-0.7c-1-0.3-1.8-0.5-2.5-0.8c-0.6-0.3-1.2-0.6-1.5-1.1c-0.4-0.5-0.6-1-0.6-1.7
			c0-0.6,0.2-1.2,0.5-1.7c0.4-0.5,0.9-0.9,1.6-1.3c0.7-0.3,1.5-0.5,2.5-0.5c0.8,0,1.5,0.1,2.1,0.2c0.6,0.2,1.1,0.4,1.5,0.6
			c0.4,0.3,0.7,0.6,0.9,0.9c0.2,0.3,0.3,0.6,0.3,1c0,0.3-0.1,0.6-0.3,0.8c-0.2,0.2-0.6,0.3-1,0.3c-0.3,0-0.6-0.1-0.8-0.3
			c-0.2-0.2-0.5-0.4-0.7-0.8c-0.2-0.3-0.5-0.5-0.8-0.7s-0.7-0.3-1.2-0.3c-0.5,0-1,0.1-1.3,0.3c-0.4,0.2-0.5,0.5-0.5,0.9
			c0,0.3,0.1,0.6,0.4,0.8c0.3,0.2,0.6,0.4,1.1,0.5c0.4,0.1,1,0.3,1.8,0.5c0.9,0.2,1.7,0.5,2.3,0.8c0.6,0.3,1,0.7,1.3,1.1
			C189.5,32.6,189.7,33.1,189.7,33.6z"/>
	</g>
</g>
<g>
	<path class="st0" d="M17.1,25.5V15.4l-7.9-1.4v24.6c0,0.9,0.7,1.8,1.6,2l13.3,2.7c0.9,0.2,1.6-0.4,1.6-1.3V27.1L17.1,25.5z
		 M19.7,40.9l-2.5-0.5V26.9l2.5,0.5V40.9z"/>
	<polygon class="st0" points="32.3,12.1 28.4,11.6 28.4,7.7 32.3,8.2 	"/>
	<polygon class="st0" points="27.3,7.2 24.5,6.9 24.5,4.1 27.3,4.5 	"/>
</g>
<g>
	<path class="st0" d="M36.9,21.3l-13.3-1.8C22.7,19.3,22,20,22,20.9v4.7l4.6,0.9v15.5c0,0.7-0.3,1.3-0.8,1.7
		c-0.4,0.3-0.8,0.5-1.3,0.5c-0.2,0-0.3,0-0.5,0l-2-0.4v1.9l7.9,1.2V36.6l8.7,1.2V23.1C38.6,22.2,37.8,21.4,36.9,21.3z M32.4,35.5
		L30,35.2V21.7l2.5,0.3V35.5z"/>
	<polygon class="st0" points="27.3,17.4 22,16.7 22,11.4 27.3,12.1 	"/>
</g>
</svg>
